<?xml version="1.0" encoding="UTF-8"?>
<!DOCTYPE svg PUBLIC "-//W3C//DTD SVG 1.1//EN" "http://www.w3.org/Graphics/SVG/1.1/DTD/svg11.dtd">
<svg xmlns="http://www.w3.org/2000/svg" version="1.1" width="1200px" height="1203px" style="shape-rendering:geometricPrecision; text-rendering:geometricPrecision; image-rendering:optimizeQuality; fill-rule:evenodd; clip-rule:evenodd" xmlns:xlink="http://www.w3.org/1999/xlink">
<g><path style="opacity:1" fill="#f8a400" d="M 543.5,-0.5 C 567.5,-0.5 591.5,-0.5 615.5,-0.5C 618.962,0.481638 622.629,0.814971 626.5,0.5C 630.029,2.42277 634.029,3.08943 638.5,2.5C 639.167,2.5 639.833,2.5 640.5,2.5C 644.567,4.05378 648.9,4.72045 653.5,4.5C 695.964,9.85552 737.297,19.5222 777.5,33.5C 778.29,34.4013 779.29,35.0679 780.5,35.5C 780.5,293.167 780.5,550.833 780.5,808.5C 655.5,808.5 530.5,808.5 405.5,808.5C 405.5,807.167 405.5,805.833 405.5,804.5C 405.667,779.498 405.5,754.498 405,729.5C 404.768,728.263 404.268,727.263 403.5,726.5C 403.218,651.5 402.885,576.5 402.5,501.5C 403.663,478.004 403.83,454.337 403,430.5C 402.802,428.618 402.302,426.952 401.5,425.5C 400.972,319.832 400.306,214.166 399.5,108.5C 400.498,85.0059 400.831,61.3392 400.5,37.5C 402.38,37.7709 403.713,37.1042 404.5,35.5C 448.685,15.2037 495.019,3.20367 543.5,-0.5 Z"/></g>
<g><path style="opacity:0.263" fill="#ffc86e" d="M 626.5,0.5 C 630.664,0.955675 634.664,1.62234 638.5,2.5C 634.029,3.08943 630.029,2.42277 626.5,0.5 Z"/></g>
<g><path style="opacity:0.2" fill="#fec86b" d="M 640.5,2.5 C 645.076,2.43786 649.409,3.10452 653.5,4.5C 648.9,4.72045 644.567,4.05378 640.5,2.5 Z"/></g>
<g><path style="opacity:0.929" fill="#f8a80d" d="M 780.5,35.5 C 781.5,293.666 781.833,551.999 781.5,810.5C 655.833,810.5 530.167,810.5 404.5,810.5C 404.5,808.5 404.5,806.5 404.5,804.5C 404.833,804.5 405.167,804.5 405.5,804.5C 405.5,805.833 405.5,807.167 405.5,808.5C 530.5,808.5 655.5,808.5 780.5,808.5C 780.5,550.833 780.5,293.167 780.5,35.5 Z"/></g>
<g><path style="opacity:0.298" fill="#fbcc71" d="M 777.5,33.5 C 778.93,33.4208 780.264,33.7542 781.5,34.5C 782.833,293.333 782.833,552 781.5,810.5C 781.833,551.999 781.5,293.666 780.5,35.5C 779.29,35.0679 778.29,34.4013 777.5,33.5 Z"/></g>
<g><path style="opacity:0.343" fill="#fbc55e" d="M 404.5,35.5 C 403.713,37.1042 402.38,37.7709 400.5,37.5C 400.831,61.3392 400.498,85.0059 399.5,108.5C 399.813,85.8069 399.479,63.1402 398.5,40.5C 399.149,37.285 401.149,35.6183 404.5,35.5 Z"/></g>
<g><path style="opacity:1" fill="#c80128" d="M 963.5,182.5 C 963.821,184.048 964.821,184.715 966.5,184.5C 973.038,188.264 979.372,192.264 985.5,196.5C 985.333,229.168 985.5,261.835 986,294.5C 986.232,295.737 986.732,296.737 987.5,297.5C 987.5,378.833 987.5,460.167 987.5,541.5C 986.335,595.332 986.168,649.332 987,703.5C 987.175,708.019 987.675,712.353 988.5,716.5C 988.5,720.167 988.5,723.833 988.5,727.5C 987.335,780.998 987.168,834.665 988,888.5C 988.173,894.016 988.673,899.349 989.5,904.5C 989.5,928.833 989.5,953.167 989.5,977.5C 973.167,977.5 956.833,977.5 940.5,977.5C 884.335,976.335 828.001,976.168 771.5,977C 769.292,977.191 767.292,977.691 765.5,978.5C 583.166,979.056 400.833,979.722 218.5,980.5C 218.5,943.833 218.5,907.167 218.5,870.5C 219.118,857.353 219.452,844.187 219.5,831C 219.69,814.305 219.023,797.805 217.5,781.5C 217.5,776.5 217.5,771.5 217.5,766.5C 218.663,743.337 218.83,720.004 218,696.5C 217.814,693.964 217.314,691.631 216.5,689.5C 216.5,650.167 216.5,610.833 216.5,571.5C 217.595,540.512 217.762,509.512 217,478.5C 216.617,477.944 216.117,477.611 215.5,477.5C 215.5,472.167 215.5,466.833 215.5,461.5C 216.663,438.004 216.83,414.337 216,390.5C 215.817,387.635 215.317,384.969 214.5,382.5C 214.5,378.167 214.5,373.833 214.5,369.5C 215.664,338.003 215.831,306.336 215,274.5C 214.617,273.944 214.117,273.611 213.5,273.5C 213.5,272.833 213.5,272.167 213.5,271.5C 214.167,249.33 214.833,226.996 215.5,204.5C 216.522,204.145 217.189,203.478 217.5,202.5C 261.19,173.5 305.19,144.833 349.5,116.5C 350.5,182.83 350.833,249.163 350.5,315.5C 349.356,366.815 349.189,418.149 350,469.5C 350.191,471.708 350.691,473.708 351.5,475.5C 351.5,485.833 351.5,496.167 351.5,506.5C 350.335,566.999 350.168,627.665 351,688.5C 351.232,689.737 351.732,690.737 352.5,691.5C 352.5,693.167 352.5,694.833 352.5,696.5C 351.501,748.331 351.168,800.331 351.5,852.5C 515.5,852.5 679.5,852.5 843.5,852.5C 843.832,801.664 843.499,750.997 842.5,700.5C 842.5,697.167 842.5,693.833 842.5,690.5C 843.268,689.737 843.768,688.737 844,687.5C 844.832,629.665 844.665,571.999 843.5,514.5C 843.5,507.833 843.5,501.167 843.5,494.5C 844.317,492.031 844.817,489.365 845,486.5C 845.667,432.167 845.667,377.833 845,323.5C 844.824,319.312 844.324,315.312 843.5,311.5C 843.5,308.5 843.5,305.5 843.5,302.5C 844.323,299.023 844.823,295.356 845,291.5C 845.832,235.665 845.665,179.998 844.5,124.5C 844.174,120.116 844.508,115.783 845.5,111.5C 884.861,135.178 924.194,158.845 963.5,182.5 Z"/></g>
<g><path style="opacity:0.557" fill="#ed9098" d="M 963.5,182.5 C 964.71,182.932 965.71,183.599 966.5,184.5C 964.821,184.715 963.821,184.048 963.5,182.5 Z"/></g>
<g><path style="opacity:0.29" fill="#e88b9a" d="M 217.5,202.5 C 217.189,203.478 216.522,204.145 215.5,204.5C 214.833,226.996 214.167,249.33 213.5,271.5C 213.167,248.824 213.5,226.157 214.5,203.5C 215.417,202.873 216.417,202.539 217.5,202.5 Z"/></g>
<g><path style="opacity:1" fill="#e06402" d="M 128.5,353.5 C 128.5,388.167 128.5,422.833 128.5,457.5C 127.338,477.329 127.171,497.329 128,517.5C 128.186,520.036 128.686,522.369 129.5,524.5C 129.5,531.167 129.5,537.833 129.5,544.5C 128.337,567.996 128.17,591.663 129,615.5C 129.181,618.695 129.681,621.695 130.5,624.5C 130.754,687.834 131.087,751.167 131.5,814.5C 130.337,837.996 130.17,861.663 131,885.5C 131.179,889.025 131.679,892.359 132.5,895.5C 132.5,898.167 132.5,900.833 132.5,903.5C 131.668,925.33 131.168,947.33 131,969.5C 130.329,968.748 129.496,968.414 128.5,968.5C 105.732,942.308 85.3983,914.308 67.5,884.5C 67.8849,879.582 65.8849,876.249 61.5,874.5C 61.7148,872.821 61.0481,871.821 59.5,871.5C 58.5,869.5 57.5,867.5 56.5,865.5C 56.8765,861.247 55.2098,858.247 51.5,856.5C 48.8957,851.625 46.5624,846.625 44.5,841.5C 44.528,839.418 43.8613,837.584 42.5,836C 42.8333,835.667 43.1667,835.333 43.5,835C 42.3094,834.302 41.3094,833.469 40.5,832.5C 35.7639,824.352 32.0972,815.686 29.5,806.5C 29.4919,801.419 27.8252,797.085 24.5,793.5C 23.2616,791.786 22.595,789.786 22.5,787.5C 22.4116,782.67 21.0783,778.337 18.5,774.5C 16.7234,771.495 15.7234,768.162 15.5,764.5C 15.3282,759.069 13.9949,754.069 11.5,749.5C 11.8893,746.447 11.2227,743.78 9.5,741.5C 9.5,741.167 9.5,740.833 9.5,740.5C 9.97461,737.918 9.30794,735.918 7.5,734.5C 7.5,733.167 7.5,731.833 7.5,730.5C 7.66409,727.813 7.49742,725.146 7,722.5C 6.3146,718.461 5.14794,714.795 3.5,711.5C 2.50555,705.544 1.83889,699.544 1.5,693.5C 2.13863,692.903 2.47196,692.07 2.5,691C 2.31577,689.624 1.64911,688.791 0.5,688.5C 0.5,688.167 0.5,687.833 0.5,687.5C 1.57753,676.809 1.2442,666.142 -0.5,655.5C -0.5,640.167 -0.5,624.833 -0.5,609.5C 0.308832,601.604 1.30883,593.604 2.5,585.5C 4.44139,581.349 5.10806,577.016 4.5,572.5C 5.77979,562.102 7.44646,551.768 9.5,541.5C 11.3079,540.082 11.9746,538.082 11.5,535.5C 11.5,535.167 11.5,534.833 11.5,534.5C 13.2227,532.22 13.8893,529.553 13.5,526.5C 13.5,526.167 13.5,525.833 13.5,525.5C 15.1628,523.562 15.8294,521.228 15.5,518.5C 15.5,518.167 15.5,517.833 15.5,517.5C 17.68,514.619 18.68,511.286 18.5,507.5C 20.1628,505.562 20.8294,503.228 20.5,500.5C 22.1628,498.562 22.8294,496.228 22.5,493.5C 24.2649,486.205 26.5983,479.205 29.5,472.5C 31.0739,470.898 31.7406,468.898 31.5,466.5C 32.7093,460.538 34.7093,454.871 37.5,449.5C 39.8337,447.824 40.8337,445.491 40.5,442.5C 48.2199,421.063 57.5533,400.397 68.5,380.5C 69.3764,380.631 70.0431,380.298 70.5,379.5C 73.7279,373.714 76.3946,367.714 78.5,361.5C 92.0749,334.667 107.408,309 124.5,284.5C 125.117,284.389 125.617,284.056 126,283.5C 126.333,305.167 126.667,326.833 127,348.5C 127.198,350.382 127.698,352.048 128.5,353.5 Z"/></g>
<g><path style="opacity:0.73" fill="#dd596b" d="M 844.5,124.5 C 845.665,179.998 845.832,235.665 845,291.5C 844.823,295.356 844.323,299.023 843.5,302.5C 843.663,243.165 843.997,183.832 844.5,124.5 Z"/></g>
<g><path style="opacity:0.689" fill="#df6171" d="M 985.5,196.5 C 986.328,202.987 986.828,209.654 987,216.5C 987.5,243.498 987.667,270.498 987.5,297.5C 986.732,296.737 986.232,295.737 986,294.5C 985.5,261.835 985.333,229.168 985.5,196.5 Z"/></g>
<g><path style="opacity:1" fill="#e06503" d="M 1071.5,287.5 C 1076.92,292.579 1081.58,298.246 1085.5,304.5C 1086.08,306.749 1087.41,308.415 1089.5,309.5C 1091.26,310.262 1092.26,311.596 1092.5,313.5C 1094.74,318.071 1097.74,322.071 1101.5,325.5C 1102.17,325.5 1102.5,325.833 1102.5,326.5C 1103.01,329.674 1104.68,332.008 1107.5,333.5C 1107.84,336.198 1109.18,338.198 1111.5,339.5C 1125.48,358.185 1137.48,378.185 1147.5,399.5C 1147.43,401.027 1148.09,402.027 1149.5,402.5C 1149.5,402.833 1149.5,403.167 1149.5,403.5C 1149.43,405.027 1150.09,406.027 1151.5,406.5C 1163.53,430.248 1173.19,454.915 1180.5,480.5C 1180.17,483.228 1180.84,485.562 1182.5,487.5C 1182.32,491.286 1183.32,494.619 1185.5,497.5C 1185.5,497.833 1185.5,498.167 1185.5,498.5C 1185.29,501.495 1185.96,504.162 1187.5,506.5C 1187.5,506.833 1187.5,507.167 1187.5,507.5C 1187.01,514.01 1188.35,520.01 1191.5,525.5C 1191.5,525.833 1191.5,526.167 1191.5,526.5C 1191.42,531.831 1192.42,536.831 1194.5,541.5C 1196.68,555.569 1198.34,569.569 1199.5,583.5C 1199.5,600.5 1199.5,617.5 1199.5,634.5C 1198.66,634.842 1198.33,635.508 1198.5,636.5C 1195.62,655.633 1193.29,674.966 1191.5,694.5C 1191.7,696.95 1191.37,699.283 1190.5,701.5C 1189.25,702.334 1188.59,703.667 1188.5,705.5C 1188.03,708.492 1187.7,711.492 1187.5,714.5C 1187.5,714.833 1187.5,715.167 1187.5,715.5C 1185.96,717.838 1185.29,720.505 1185.5,723.5C 1184.04,732.83 1181.71,741.83 1178.5,750.5C 1177.08,752.515 1176.41,754.848 1176.5,757.5C 1176.59,760.152 1175.92,762.485 1174.5,764.5C 1171.49,767.867 1170.16,771.867 1170.5,776.5C 1168.06,785.373 1165.06,794.039 1161.5,802.5C 1159.17,804.176 1158.17,806.509 1158.5,809.5C 1156.39,816.386 1153.72,823.052 1150.5,829.5C 1148.46,830.911 1147.46,832.911 1147.5,835.5C 1146.04,840.423 1144.04,845.09 1141.5,849.5C 1139.9,850.287 1139.23,851.62 1139.5,853.5C 1120.3,894.255 1098.3,933.255 1073.5,970.5C 1071.84,947.018 1070.84,923.351 1070.5,899.5C 1069.66,862.507 1069.33,825.507 1069.5,788.5C 1070.66,764.003 1070.83,739.337 1070,714.5C 1069.72,713.584 1069.22,712.918 1068.5,712.5C 1068.22,647.833 1067.89,583.166 1067.5,518.5C 1068.66,498.004 1068.83,477.337 1068,456.5C 1067.82,453.635 1067.32,450.969 1066.5,448.5C 1066.5,414.167 1066.5,379.833 1066.5,345.5C 1066.33,324.831 1066.5,304.164 1067,283.5C 1068.37,285.041 1069.87,286.375 1071.5,287.5 Z"/></g>
<g><path style="opacity:0.247" fill="#f4bb8e" d="M 1071.5,287.5 C 1069.87,286.375 1068.37,285.041 1067,283.5C 1066.5,304.164 1066.33,324.831 1066.5,345.5C 1065.17,324.33 1065.17,302.996 1066.5,281.5C 1068.94,282.931 1070.6,284.931 1071.5,287.5 Z"/></g>
<g><path style="opacity:0.322" fill="#f2ac78" d="M 1085.5,304.5 C 1087.59,305.585 1088.92,307.251 1089.5,309.5C 1087.41,308.415 1086.08,306.749 1085.5,304.5 Z"/></g>
<g><path style="opacity:0.792" fill="#ed9958" d="M 1092.5,313.5 C 1096.26,316.929 1099.26,320.929 1101.5,325.5C 1097.74,322.071 1094.74,318.071 1092.5,313.5 Z"/></g>
<g><path style="opacity:0.298" fill="#f4af7c" d="M 1102.5,326.5 C 1104.55,328.55 1106.21,330.883 1107.5,333.5C 1104.68,332.008 1103.01,329.674 1102.5,326.5 Z"/></g>
<g><path style="opacity:0.313" fill="#d9516a" d="M 213.5,273.5 C 214.117,273.611 214.617,273.944 215,274.5C 215.831,306.336 215.664,338.003 214.5,369.5C 214.719,337.491 214.386,305.491 213.5,273.5 Z"/></g>
<g><path style="opacity:0.431" fill="#f0a469" d="M 1107.5,333.5 C 1109.33,335.147 1110.66,337.147 1111.5,339.5C 1109.18,338.198 1107.84,336.198 1107.5,333.5 Z"/></g>
<g><path style="opacity:0.71" fill="#ed9857" d="M 128.5,353.5 C 127.698,352.048 127.198,350.382 127,348.5C 126.667,326.833 126.333,305.167 126,283.5C 125.617,284.056 125.117,284.389 124.5,284.5C 124.415,283.005 125.081,282.005 126.5,281.5C 128.225,305.465 128.892,329.465 128.5,353.5 Z"/></g>
<g><path style="opacity:0.844" fill="#d74757" d="M 350.5,315.5 C 351.499,368.664 351.832,421.997 351.5,475.5C 350.691,473.708 350.191,471.708 350,469.5C 349.189,418.149 349.356,366.815 350.5,315.5 Z"/></g>
<g><path style="opacity:0.908" fill="#d3384b" d="M 843.5,311.5 C 844.324,315.312 844.824,319.312 845,323.5C 845.667,377.833 845.667,432.167 845,486.5C 844.817,489.365 844.317,492.031 843.5,494.5C 843.5,433.5 843.5,372.5 843.5,311.5 Z"/></g>
<g><path style="opacity:0.906" fill="#ea8b43" d="M 78.5,361.5 C 76.3946,367.714 73.7279,373.714 70.5,379.5C 70.0431,380.298 69.3764,380.631 68.5,380.5C 71.0726,373.685 74.4059,367.351 78.5,361.5 Z"/></g>
<g><path style="opacity:0.075" fill="#f5b789" d="M 1147.5,399.5 C 1148.91,399.973 1149.57,400.973 1149.5,402.5C 1148.09,402.027 1147.43,401.027 1147.5,399.5 Z"/></g>
<g><path style="opacity:0.082" fill="#f5b88b" d="M 1149.5,403.5 C 1150.91,403.973 1151.57,404.973 1151.5,406.5C 1150.09,406.027 1149.43,405.027 1149.5,403.5 Z"/></g>
<g><path style="opacity:0.614" fill="#e26977" d="M 214.5,382.5 C 215.317,384.969 215.817,387.635 216,390.5C 216.83,414.337 216.663,438.004 215.5,461.5C 214.545,435.188 214.212,408.855 214.5,382.5 Z"/></g>
<g><path style="opacity:0.761" fill="#ef9e61" d="M 40.5,442.5 C 40.8337,445.491 39.8337,447.824 37.5,449.5C 37.9348,446.843 38.9348,444.509 40.5,442.5 Z"/></g>
<g><path style="opacity:0.569" fill="#ffc86a" d="M 401.5,425.5 C 402.302,426.952 402.802,428.618 403,430.5C 403.83,454.337 403.663,478.004 402.5,501.5C 401.568,476.183 401.235,450.85 401.5,425.5 Z"/></g>
<g><path style="opacity:0.435" fill="#efa063" d="M 31.5,466.5 C 31.7406,468.898 31.0739,470.898 29.5,472.5C 29.2594,470.102 29.9261,468.102 31.5,466.5 Z"/></g>
<g><path style="opacity:0.772" fill="#ed9350" d="M 128.5,457.5 C 129.489,479.758 129.822,502.092 129.5,524.5C 128.686,522.369 128.186,520.036 128,517.5C 127.171,497.329 127.338,477.329 128.5,457.5 Z"/></g>
<g><path style="opacity:0.482" fill="#f1a369" d="M 1180.5,480.5 C 1181.92,482.515 1182.59,484.848 1182.5,487.5C 1180.84,485.562 1180.17,483.228 1180.5,480.5 Z"/></g>
<g><path style="opacity:0.494" fill="#f0a46b" d="M 1182.5,487.5 C 1184.1,490.55 1185.1,493.884 1185.5,497.5C 1183.32,494.619 1182.32,491.286 1182.5,487.5 Z"/></g>
<g><path style="opacity:0.537" fill="#f1a267" d="M 1066.5,448.5 C 1067.32,450.969 1067.82,453.635 1068,456.5C 1068.83,477.337 1068.66,498.004 1067.5,518.5C 1066.61,495.18 1066.28,471.847 1066.5,448.5 Z"/></g>
<g><path style="opacity:0.443" fill="#f0a268" d="M 22.5,493.5 C 22.8294,496.228 22.1628,498.562 20.5,500.5C 20.4095,497.848 21.0762,495.515 22.5,493.5 Z"/></g>
<g><path style="opacity:0.892" fill="#de5b64" d="M 215.5,477.5 C 216.117,477.611 216.617,477.944 217,478.5C 217.762,509.512 217.595,540.512 216.5,571.5C 215.502,540.338 215.168,509.004 215.5,477.5 Z"/></g>
<g><path style="opacity:0.604" fill="#efa063" d="M 20.5,500.5 C 20.8294,503.228 20.1628,505.562 18.5,507.5C 18.4095,504.848 19.0762,502.515 20.5,500.5 Z"/></g>
<g><path style="opacity:0.173" fill="#f1ac77" d="M 1185.5,498.5 C 1187.04,500.838 1187.71,503.505 1187.5,506.5C 1185.96,504.162 1185.29,501.495 1185.5,498.5 Z"/></g>
<g><path style="opacity:0.455" fill="#f2aa74" d="M 18.5,507.5 C 18.68,511.286 17.68,514.619 15.5,517.5C 15.8993,513.884 16.8993,510.55 18.5,507.5 Z"/></g>
<g><path style="opacity:0.996" fill="#ea8841" d="M 1187.5,507.5 C 1189.46,513.249 1190.8,519.249 1191.5,525.5C 1188.35,520.01 1187.01,514.01 1187.5,507.5 Z"/></g>
<g><path style="opacity:0.341" fill="#efa56c" d="M 15.5,518.5 C 15.8294,521.228 15.1628,523.562 13.5,525.5C 13.7215,522.933 14.3882,520.599 15.5,518.5 Z"/></g>
<g><path style="opacity:0.639" fill="#f0a065" d="M 1191.5,526.5 C 1193.24,531.23 1194.24,536.23 1194.5,541.5C 1192.42,536.831 1191.42,531.831 1191.5,526.5 Z"/></g>
<g><path style="opacity:0.267" fill="#f1aa73" d="M 13.5,526.5 C 13.8893,529.553 13.2227,532.22 11.5,534.5C 11.5651,531.572 12.2318,528.905 13.5,526.5 Z"/></g>
<g><path style="opacity:0.329" fill="#f1a46b" d="M 11.5,535.5 C 11.9746,538.082 11.3079,540.082 9.5,541.5C 9.87513,539.302 10.5418,537.302 11.5,535.5 Z"/></g>
<g><path style="opacity:0.724" fill="#d74356" d="M 843.5,514.5 C 844.665,571.999 844.832,629.665 844,687.5C 843.768,688.737 843.268,689.737 842.5,690.5C 842.186,631.815 842.52,573.148 843.5,514.5 Z"/></g>
<g><path style="opacity:0.526" fill="#f09e61" d="M 129.5,544.5 C 130.278,571.159 130.611,597.826 130.5,624.5C 129.681,621.695 129.181,618.695 129,615.5C 128.17,591.663 128.337,567.996 129.5,544.5 Z"/></g>
<g><path style="opacity:0.949" fill="#ed9554" d="M 4.5,572.5 C 5.10806,577.016 4.44139,581.349 2.5,585.5C 2.43786,580.924 3.10452,576.591 4.5,572.5 Z"/></g>
<g><path style="opacity:0.706" fill="#d8485b" d="M 987.5,541.5 C 988.496,599.762 988.829,658.095 988.5,716.5C 987.675,712.353 987.175,708.019 987,703.5C 986.168,649.332 986.335,595.332 987.5,541.5 Z"/></g>
<g><path style="opacity:0.969" fill="#ed914e" d="M 1198.5,636.5 C 1198,656.189 1195.67,675.522 1191.5,694.5C 1193.29,674.966 1195.62,655.633 1198.5,636.5 Z"/></g>
<g><path style="opacity:0.786" fill="#eb8f49" d="M -0.5,655.5 C 1.2442,666.142 1.57753,676.809 0.5,687.5C 0.8064,684.615 0.473067,681.948 -0.5,679.5C -0.5,671.5 -0.5,663.5 -0.5,655.5 Z"/></g>
<g><path style="opacity:0.143" fill="#d94c5c" d="M 351.5,506.5 C 352.386,568.162 352.719,629.828 352.5,691.5C 351.732,690.737 351.232,689.737 351,688.5C 350.168,627.665 350.335,566.999 351.5,506.5 Z"/></g>
<g><path style="opacity:0.463" fill="#f0a064" d="M 0.5,688.5 C 1.64911,688.791 2.31577,689.624 2.5,691C 2.47196,692.07 2.13863,692.903 1.5,693.5C 0.699293,691.958 0.36596,690.292 0.5,688.5 Z"/></g>
<g><path style="opacity:0.686" fill="#ef995b" d="M 1190.5,701.5 C 1190.24,706.124 1189.24,710.458 1187.5,714.5C 1187.7,711.492 1188.03,708.492 1188.5,705.5C 1188.59,703.667 1189.25,702.334 1190.5,701.5 Z"/></g>
<g><path style="opacity:0.427" fill="#f0a46b" d="M 1187.5,715.5 C 1187.71,718.495 1187.04,721.162 1185.5,723.5C 1185.29,720.505 1185.96,717.838 1187.5,715.5 Z"/></g>
<g><path style="opacity:0.906" fill="#f09c5f" d="M 3.5,711.5 C 5.14794,714.795 6.3146,718.461 7,722.5C 7.49742,725.146 7.66409,727.813 7.5,730.5C 5.4359,724.438 4.10256,718.105 3.5,711.5 Z"/></g>
<g><path style="opacity:0.502" fill="#f5ad79" d="M 7.5,734.5 C 9.30794,735.918 9.97461,737.918 9.5,740.5C 8.5418,738.698 7.87513,736.698 7.5,734.5 Z"/></g>
<g><path style="opacity:0.505" fill="#e46f7d" d="M 216.5,689.5 C 217.314,691.631 217.814,693.964 218,696.5C 218.83,720.004 218.663,743.337 217.5,766.5C 216.648,740.843 216.315,715.177 216.5,689.5 Z"/></g>
<g><path style="opacity:0.514" fill="#f1a56b" d="M 9.5,741.5 C 11.2227,743.78 11.8893,746.447 11.5,749.5C 10.2318,747.095 9.56513,744.428 9.5,741.5 Z"/></g>
<g><path style="opacity:0.617" fill="#f19f63" d="M 1068.5,712.5 C 1069.22,712.918 1069.72,713.584 1070,714.5C 1070.83,739.337 1070.66,764.003 1069.5,788.5C 1068.69,763.175 1068.36,737.842 1068.5,712.5 Z"/></g>
<g><path style="opacity:0.302" fill="#f1a56b" d="M 1178.5,750.5 C 1178.59,753.152 1177.92,755.485 1176.5,757.5C 1176.41,754.848 1177.08,752.515 1178.5,750.5 Z"/></g>
<g><path style="opacity:0.729" fill="#ef9b5d" d="M 11.5,749.5 C 13.9949,754.069 15.3282,759.069 15.5,764.5C 13.409,759.809 12.0756,754.809 11.5,749.5 Z"/></g>
<g><path style="opacity:0.884" fill="#ed9452" d="M 1174.5,764.5 C 1173.74,768.784 1172.41,772.784 1170.5,776.5C 1170.16,771.867 1171.49,767.867 1174.5,764.5 Z"/></g>
<g><path style="opacity:0.78" fill="#ef9757" d="M 18.5,774.5 C 21.0783,778.337 22.4116,782.67 22.5,787.5C 20.3902,783.498 19.0569,779.165 18.5,774.5 Z"/></g>
<g><path style="opacity:0.434" fill="#e06477" d="M 988.5,727.5 C 989.084,786.498 989.417,845.498 989.5,904.5C 988.673,899.349 988.173,894.016 988,888.5C 987.168,834.665 987.335,780.998 988.5,727.5 Z"/></g>
<g><path style="opacity:0.847" fill="#ee9858" d="M 24.5,793.5 C 27.8252,797.085 29.4919,801.419 29.5,806.5C 27.0363,802.556 25.3697,798.223 24.5,793.5 Z"/></g>
<g><path style="opacity:0.424" fill="#f4aa74" d="M 1161.5,802.5 C 1161.07,805.157 1160.07,807.491 1158.5,809.5C 1158.17,806.509 1159.17,804.176 1161.5,802.5 Z"/></g>
<g><path style="opacity:0.788" fill="#e1626c" d="M 217.5,781.5 C 219.023,797.805 219.69,814.305 219.5,831C 219.452,844.187 219.118,857.353 218.5,870.5C 217.502,841.005 217.169,811.338 217.5,781.5 Z"/></g>
<g><path style="opacity:0.184" fill="#f3af7c" d="M 1150.5,829.5 C 1150.01,831.819 1149.01,833.819 1147.5,835.5C 1147.46,832.911 1148.46,830.911 1150.5,829.5 Z"/></g>
<g><path style="opacity:0.506" fill="#f0a166" d="M 40.5,832.5 C 41.3094,833.469 42.3094,834.302 43.5,835C 43.1667,835.333 42.8333,835.667 42.5,836C 43.8613,837.584 44.528,839.418 44.5,841.5C 42.3754,838.912 41.0421,835.912 40.5,832.5 Z"/></g>
<g><path style="opacity:0.38" fill="#df657b" d="M 352.5,696.5 C 352.679,748.075 352.679,799.575 352.5,851C 515.5,851.5 678.5,851.667 841.5,851.5C 841.538,801.164 841.871,750.831 842.5,700.5C 843.499,750.997 843.832,801.664 843.5,852.5C 679.5,852.5 515.5,852.5 351.5,852.5C 351.168,800.331 351.501,748.331 352.5,696.5 Z"/></g>
<g><path style="opacity:0.505" fill="#fec768" d="M 403.5,726.5 C 404.268,727.263 404.768,728.263 405,729.5C 405.5,754.498 405.667,779.498 405.5,804.5C 405.167,804.5 404.833,804.5 404.5,804.5C 403.672,778.509 403.339,752.509 403.5,726.5 Z"/></g>
<g><path style="opacity:0.169" fill="#f7bb8f" d="M 1141.5,849.5 C 1141.34,851.153 1140.67,852.486 1139.5,853.5C 1139.23,851.62 1139.9,850.287 1141.5,849.5 Z"/></g>
<g><path style="opacity:0.988" fill="#ef995a" d="M 51.5,856.5 C 55.2098,858.247 56.8765,861.247 56.5,865.5C 54.5954,862.696 52.9287,859.696 51.5,856.5 Z"/></g>
<g><path style="opacity:0.431" fill="#f8bd92" d="M 59.5,871.5 C 61.0481,871.821 61.7148,872.821 61.5,874.5C 60.5987,873.71 59.9321,872.71 59.5,871.5 Z"/></g>
<g><path style="opacity:1" fill="#ed8f4c" d="M 61.5,874.5 C 65.8849,876.249 67.8849,879.582 67.5,884.5C 65.1373,881.451 63.1373,878.118 61.5,874.5 Z"/></g>
<g><path style="opacity:0.818" fill="#ec924e" d="M 131.5,814.5 C 132.361,841.49 132.694,868.49 132.5,895.5C 131.679,892.359 131.179,889.025 131,885.5C 130.17,861.663 130.337,837.996 131.5,814.5 Z"/></g>
<g><path style="opacity:0.17" fill="#f0af7b" d="M 1070.5,899.5 C 1070.84,923.351 1071.84,947.018 1073.5,970.5C 1072.99,972.233 1072.16,972.566 1071,971.5C 1070.5,947.502 1070.33,923.502 1070.5,899.5 Z"/></g>
<g><path style="opacity:0.543" fill="#eb9755" d="M 132.5,903.5 C 132.173,926.075 132.506,948.575 133.5,971C 133,971.5 132.5,972 132,972.5C 130.624,971.295 129.458,969.962 128.5,968.5C 129.496,968.414 130.329,968.748 131,969.5C 131.168,947.33 131.668,925.33 132.5,903.5 Z"/></g>
<g><path style="opacity:0.625" fill="#e26572" d="M 940.5,977.5 C 882.173,978.419 823.84,978.752 765.5,978.5C 767.292,977.691 769.292,977.191 771.5,977C 828.001,976.168 884.335,976.335 940.5,977.5 Z"/></g>
<g><path style="opacity:0.071" fill="#e98f47" d="M 984.5,1063.5 C 857.168,1062.17 729.502,1061.5 601.5,1061.5C 473.498,1061.5 345.832,1062.17 218.5,1063.5C 217.522,1063.19 216.855,1062.52 216.5,1061.5C 473.167,1060.17 729.833,1060.17 986.5,1061.5C 986.145,1062.52 985.478,1063.19 984.5,1063.5 Z"/></g>
<g><path style="opacity:0.792" fill="#e47720" d="M 984.5,1063.5 C 984.5,1064.17 984.167,1064.5 983.5,1064.5C 856.502,1063.17 729.168,1062.5 601.5,1062.5C 474.167,1062.67 346.833,1062.83 219.5,1063C 221.618,1064.05 223.284,1065.55 224.5,1067.5C 222.147,1066.66 220.147,1065.33 218.5,1063.5C 345.832,1062.17 473.498,1061.5 601.5,1061.5C 729.502,1061.5 857.168,1062.17 984.5,1063.5 Z"/></g>
<g><path style="opacity:1" fill="#e06401" d="M 983.5,1064.5 C 952.817,1086.51 920.817,1106.51 887.5,1124.5C 885.821,1124.29 884.821,1124.95 884.5,1126.5C 872.929,1132.45 861.263,1138.12 849.5,1143.5C 846.715,1142.92 845.048,1143.92 844.5,1146.5C 813.26,1161.14 780.926,1172.8 747.5,1181.5C 738.445,1182.78 729.779,1185.11 721.5,1188.5C 721.167,1188.5 720.833,1188.5 720.5,1188.5C 717.505,1188.29 714.838,1188.96 712.5,1190.5C 712.167,1190.5 711.833,1190.5 711.5,1190.5C 708.918,1190.03 706.918,1190.69 705.5,1192.5C 704.167,1192.5 702.833,1192.5 701.5,1192.5C 697.99,1192.67 694.49,1193 691,1193.5C 689.014,1193.57 687.514,1194.24 686.5,1195.5C 684.958,1196.3 683.292,1196.63 681.5,1196.5C 680.378,1195.84 679.045,1195.51 677.5,1195.5C 670.627,1196.47 663.961,1197.81 657.5,1199.5C 656.833,1199.5 656.167,1199.5 655.5,1199.5C 654.584,1199.02 653.584,1198.69 652.5,1198.5C 642.898,1199.98 633.231,1200.81 623.5,1201C 622.944,1201.38 622.611,1201.88 622.5,1202.5C 603.833,1202.5 585.167,1202.5 566.5,1202.5C 550.969,1200.94 535.302,1199.27 519.5,1197.5C 519.38,1196.41 518.713,1195.75 517.5,1195.5C 514.217,1194.67 510.884,1194.34 507.5,1194.5C 500.024,1193.81 492.691,1192.48 485.5,1190.5C 483.162,1188.96 480.495,1188.29 477.5,1188.5C 477.167,1188.5 476.833,1188.5 476.5,1188.5C 474.162,1186.96 471.495,1186.29 468.5,1186.5C 468.167,1186.5 467.833,1186.5 467.5,1186.5C 464.619,1184.32 461.286,1183.32 457.5,1183.5C 452.36,1182.63 447.36,1181.3 442.5,1179.5C 440.044,1177.13 437.044,1176.13 433.5,1176.5C 425.216,1174.41 417.216,1171.74 409.5,1168.5C 407.316,1166.42 404.649,1165.42 401.5,1165.5C 341.94,1142.73 286.606,1112.73 235.5,1075.5C 234.656,1073.24 232.989,1072.24 230.5,1072.5C 228.091,1071.3 226.091,1069.63 224.5,1067.5C 223.284,1065.55 221.618,1064.05 219.5,1063C 346.833,1062.83 474.167,1062.67 601.5,1062.5C 729.168,1062.5 856.502,1063.17 983.5,1064.5 Z"/></g>
<g><path style="opacity:0.475" fill="#f09f63" d="M 230.5,1072.5 C 232.989,1072.24 234.656,1073.24 235.5,1075.5C 233.566,1074.89 231.899,1073.89 230.5,1072.5 Z"/></g>
<g><path style="opacity:0.18" fill="#f7b88b" d="M 887.5,1124.5 C 886.71,1125.4 885.71,1126.07 884.5,1126.5C 884.821,1124.95 885.821,1124.29 887.5,1124.5 Z"/></g>
<g><path style="opacity:0.553" fill="#f3a66f" d="M 849.5,1143.5 C 848.035,1144.74 846.368,1145.74 844.5,1146.5C 845.048,1143.92 846.715,1142.92 849.5,1143.5 Z"/></g>
<g><path style="opacity:0.651" fill="#f0a268" d="M 401.5,1165.5 C 404.649,1165.42 407.316,1166.42 409.5,1168.5C 406.557,1168.02 403.89,1167.02 401.5,1165.5 Z"/></g>
<g><path style="opacity:0.588" fill="#ef9e61" d="M 433.5,1176.5 C 437.044,1176.13 440.044,1177.13 442.5,1179.5C 439.215,1179.07 436.215,1178.07 433.5,1176.5 Z"/></g>
<g><path style="opacity:0.851" fill="#ee9655" d="M 747.5,1181.5 C 739.187,1184.75 730.52,1187.08 721.5,1188.5C 729.779,1185.11 738.445,1182.78 747.5,1181.5 Z"/></g>
<g><path style="opacity:0.498" fill="#f2a872" d="M 457.5,1183.5 C 461.286,1183.32 464.619,1184.32 467.5,1186.5C 463.884,1186.1 460.55,1185.1 457.5,1183.5 Z"/></g>
<g><path style="opacity:0.031" fill="#f2ae7b" d="M 468.5,1186.5 C 471.495,1186.29 474.162,1186.96 476.5,1188.5C 473.572,1188.43 470.905,1187.77 468.5,1186.5 Z"/></g>
<g><path style="opacity:0.055" fill="#eea064" d="M 477.5,1188.5 C 480.495,1188.29 483.162,1188.96 485.5,1190.5C 482.572,1190.43 479.905,1189.77 477.5,1188.5 Z"/></g>
<g><path style="opacity:0.169" fill="#f0a76f" d="M 720.5,1188.5 C 718.095,1189.77 715.428,1190.43 712.5,1190.5C 714.838,1188.96 717.505,1188.29 720.5,1188.5 Z"/></g>
<g><path style="opacity:0.553" fill="#f3a871" d="M 711.5,1190.5 C 709.698,1191.46 707.698,1192.12 705.5,1192.5C 706.918,1190.69 708.918,1190.03 711.5,1190.5 Z"/></g>
<g><path style="opacity:0.875" fill="#ee9555" d="M 701.5,1192.5 C 696.752,1194.14 691.752,1195.14 686.5,1195.5C 687.514,1194.24 689.014,1193.57 691,1193.5C 694.49,1193 697.99,1192.67 701.5,1192.5 Z"/></g>
<g><path style="opacity:0.375" fill="#ef9b5b" d="M 507.5,1194.5 C 510.884,1194.34 514.217,1194.67 517.5,1195.5C 518.713,1195.75 519.38,1196.41 519.5,1197.5C 515.361,1196.71 511.361,1195.71 507.5,1194.5 Z"/></g>
<g><path style="opacity:0.892" fill="#ed9452" d="M 681.5,1196.5 C 673.584,1198.06 665.584,1199.06 657.5,1199.5C 663.961,1197.81 670.627,1196.47 677.5,1195.5C 679.045,1195.51 680.378,1195.84 681.5,1196.5 Z"/></g>
<g><path style="opacity:0.612" fill="#f19e62" d="M 655.5,1199.5 C 647.536,1200.83 639.536,1201.83 631.5,1202.5C 628.5,1202.5 625.5,1202.5 622.5,1202.5C 622.611,1201.88 622.944,1201.38 623.5,1201C 633.231,1200.81 642.898,1199.98 652.5,1198.5C 653.584,1198.69 654.584,1199.02 655.5,1199.5 Z"/></g>
</svg>
