<?xml version="1.0" standalone="no"?>
<!DOCTYPE svg PUBLIC "-//W3C//DTD SVG 20010904//EN"
 "http://www.w3.org/TR/2001/REC-SVG-20010904/DTD/svg10.dtd">
<svg version="1.0" xmlns="http://www.w3.org/2000/svg"
 width="215.000000pt" height="240.000000pt" viewBox="0 0 215.000000 240.000000"
 preserveAspectRatio="xMidYMid meet">

<g transform="translate(0.000000,240.000000) scale(0.100000,-0.100000)"
fill="#000000" stroke="none">
<path d="M959 2381 c-75 -24 -165 -72 -592 -319 l-358 -207 4 -525 c3 -442 6
-533 19 -578 33 -109 95 -182 225 -266 57 -36 730 -427 800 -464 19 -10 65 13
405 210 210 121 415 242 454 269 103 69 169 145 196 227 22 66 22 79 26 598
l3 531 -373 215 c-410 237 -506 288 -587 312 -70 21 -151 20 -222 -3z m212
-27 c79 -24 154 -64 567 -302 l373 -215 -3 -516 c-4 -458 -6 -522 -22 -571
-24 -75 -72 -139 -149 -196 -61 -45 -843 -503 -860 -504 -11 0 -708 403 -804
466 -91 59 -154 117 -179 166 -45 87 -47 109 -51 643 l-5 510 359 207 c449
259 479 275 561 304 79 28 138 30 213 8z"/>
<path d="M975 2286 c-22 -7 -69 -27 -105 -45 -101 -51 -730 -415 -730 -422 0
-4 19 -18 43 -32 23 -13 108 -63 189 -111 81 -47 152 -86 157 -86 5 0 97 50
203 112 246 142 281 158 343 158 62 0 120 -27 365 -169 96 -55 179 -101 185
-101 5 0 97 52 203 114 188 111 193 115 170 129 -33 21 -599 346 -678 389
-132 73 -249 95 -345 64z"/>
<path d="M985 1776 c-69 -32 -385 -216 -385 -224 0 -7 185 -115 207 -120 6 -2
47 17 90 42 118 68 168 88 200 80 15 -4 75 -33 132 -65 57 -33 108 -59 113
-59 9 0 197 106 210 118 7 7 -290 183 -382 226 -68 32 -120 33 -185 2z"/>
<path d="M100 1357 c0 -423 8 -540 42 -618 26 -62 110 -141 223 -210 118 -73
645 -376 668 -385 16 -6 17 9 17 218 l0 225 -202 118 c-256 148 -290 173 -320
233 -22 45 -23 58 -26 324 l-4 277 -152 87 c-224 128 -234 134 -240 134 -3 0
-6 -181 -6 -403z"/>
<path d="M1843 1647 l-193 -111 0 -253 c0 -309 -5 -341 -69 -401 -26 -25 -138
-98 -256 -166 l-210 -122 -3 -227 c-1 -125 0 -227 2 -227 9 0 652 374 721 419
135 88 186 161 205 288 11 79 14 913 3 912 -5 0 -95 -51 -200 -112z"/>
<path d="M562 1254 c3 -285 8 -303 86 -358 65 -46 375 -226 390 -226 9 0 12
29 12 114 l0 114 -102 58 c-57 32 -118 73 -135 90 l-33 32 0 146 0 146 -52 33
c-29 19 -79 48 -111 66 l-58 33 3 -248z"/>
<path d="M1485 1439 l-100 -58 -6 -151 c-5 -151 -6 -151 -35 -180 -16 -16 -74
-55 -129 -88 l-100 -59 -3 -121 -3 -121 98 56 c316 180 353 209 373 283 6 23
9 131 8 268 l-3 230 -100 -59z"/>
<path d="M999 1461 c-89 -47 -119 -66 -119 -72 0 -3 22 -18 49 -32 l49 -27 47
27 47 26 54 -26 53 -26 45 25 c25 14 46 29 46 33 0 14 -166 101 -192 101 -14
0 -49 -13 -79 -29z"/>
<path d="M833 1225 c6 -102 9 -121 28 -141 19 -20 170 -114 184 -114 3 0 5 24
5 53 0 53 0 53 -52 87 l-53 35 -3 68 c-3 67 -3 68 -43 93 -76 48 -73 52 -66
-81z"/>
<path d="M1263 1313 c-42 -24 -43 -26 -43 -78 0 -75 -11 -98 -64 -126 l-46
-24 0 -58 c0 -32 3 -56 8 -54 4 2 46 27 94 56 67 40 89 58 97 83 12 35 15 229
4 227 -5 -1 -27 -12 -50 -26z"/>
</g>
</svg>
